<svg width="64" height="64" viewBox="0 0 64 64" xmlns="http://www.w3.org/2000/svg">
  <!-- Satellite body -->
  <rect x="28" y="28" width="8" height="8" fill="#1E1E2F" stroke="#FFFFFF" stroke-width="2" rx="1"></rect>

  <!-- Solar panels -->
  <rect x="16" y="28" width="10" height="8" fill="#1E1E2F" stroke="#8AB6F9" stroke-width="2"></rect>
  <rect x="38" y="28" width="10" height="8" fill="#1E1E2F" stroke="#8AB6F9" stroke-width="2"></rect>

  <!-- Solar panel lines -->
  <line x1="18" y1="30" x2="18" y2="34" stroke="#8AB6F9" stroke-width="1"></line>
  <line x1="20" y1="30" x2="20" y2="34" stroke="#8AB6F9" stroke-width="1"></line>
  <line x1="22" y1="30" x2="22" y2="34" stroke="#8AB6F9" stroke-width="1"></line>

  <line x1="40" y1="30" x2="40" y2="34" stroke="#8AB6F9" stroke-width="1"></line>
  <line x1="42" y1="30" x2="42" y2="34" stroke="#8AB6F9" stroke-width="1"></line>
  <line x1="44" y1="30" x2="44" y2="34" stroke="#8AB6F9" stroke-width="1"></line>

  <!-- Antenna pole -->
  <line x1="32" y1="28" x2="32" y2="20" stroke="#8AB6F9" stroke-width="2"></line>

  <!-- Antenna head -->
  <circle cx="32" cy="18" r="2" fill="#8AB6F9"></circle>

  <!-- Centered signal arcs -->
  <path d="M32 18 m -4 -4 a5.7 5.7 0 0 1 8 8" stroke="#8AB6F9" stroke-width="1.5" fill="none"></path>
  <path d="M32 18 m -6 -6 a8.5 8.5 0 0 1 12 12" stroke="#8AB6F9" stroke-width="1.5" fill="none"></path>
</svg>
