<svg width="64" height="64" viewBox="0 0 64 64" xmlns="http://www.w3.org/2000/svg">
  <!-- Connecting lines -->
  <line x1="12" y1="44" x2="20" y2="28" stroke="#8AB6F9" stroke-width="1.5"></line>
  <line x1="20" y1="28" x2="36" y2="36" stroke="#8AB6F9" stroke-width="1.5"></line>
  <line x1="20" y1="28" x2="28" y2="52" stroke="#8AB6F9" stroke-width="1.5"></line>
  <line x1="36" y1="36" x2="44" y2="44" stroke="#8AB6F9" stroke-width="1.5"></line>
  <line x1="28" y1="52" x2="44" y2="44" stroke="#8AB6F9" stroke-width="1.5"></line>
  
  <line x1="36" y1="36" x2="52" y2="38" stroke="#8AB6F9" stroke-width="1.5"></line>
  <line x1="44" y1="44" x2="52" y2="38" stroke="#8AB6F9" stroke-width="1.5"></line>
  
  <line x1="12" y1="44" x2="8" y2="30" stroke="#8AB6F9" stroke-width="1.5"></line>
  <line x1="8" y1="30" x2="20" y2="28" stroke="#8AB6F9" stroke-width="1.5"></line>

  <!-- Stars -->
  <circle cx="12" cy="44" r="3" fill="#FFFFFF" stroke="#8AB6F9" stroke-width="1"></circle>
  <circle cx="20" cy="28" r="3" fill="#FFFFFF" stroke="#8AB6F9" stroke-width="1"></circle>
  <circle cx="36" cy="36" r="3" fill="#FFFFFF" stroke="#8AB6F9" stroke-width="1"></circle>
  <circle cx="28" cy="52" r="3" fill="#FFFFFF" stroke="#8AB6F9" stroke-width="1"></circle>
  <circle cx="44" cy="44" r="3" fill="#FFFFFF" stroke="#8AB6F9" stroke-width="1"></circle>
  <circle cx="52" cy="38" r="3" fill="#FFFFFF" stroke="#8AB6F9" stroke-width="1"></circle>
  <circle cx="8" cy="30" r="3" fill="#FFFFFF" stroke="#8AB6F9" stroke-width="1"></circle>
  <circle cx="24" cy="60" r="3" fill="#FFFFFF" stroke="#8AB6F9" stroke-width="1"></circle>
  <circle cx="40" cy="60" r="3" fill="#FFFFFF" stroke="#8AB6F9" stroke-width="1"></circle>
</svg>
